# xmcd
#
# Track frame offsets: 
#        150
#        21351
#        38523
#        54708
#        76506
#        97217
#        119655
#        131087
#        137559
#        160300
#        197542
#        214719
#        232638
#
# Disc length: 3354 seconds
#
# Revision: 0
# Processed by: cddbd v1.5.2PL0 Copyright (c) Steve Scherf et al.
# Submitted via: ExactAudioCopy v0.99pb4
#
DISCID=a90d180d
DTITLE=BO.DA. - Plays Madonna
DYEAR=2007
DGENRE=Latin
TTITLE0=La Isla Bonita
TTITLE1=Holiday
TTITLE2=Into The Groove
TTITLE3=Frozen
TTITLE4=Material Girl
TTITLE5=Paradise (Not For me)
TTITLE6=la Castidad
TTITLE7=Papa Don't Preach
TTITLE8=immpressive Instant
TTITLE9=Music
TTITLE10=Like A Virgin
TTITLE11=La Castidad (Scat Vocal Edit)
TTITLE12=La Isla Bonita (Exotic Remix)
EXTD=
EXTT0=
EXTT1=
EXTT2=
EXTT3=
EXTT4=
EXTT5=
EXTT6=
EXTT7=
EXTT8=
EXTT9=
EXTT10=
EXTT11=
EXTT12=
PLAYORDER=
